<svg xmlns="http://www.w3.org/2000/svg" width="56" height="40" viewBox="0 0 56 40">
    <g fill="none" fill-rule="evenodd">
        <path fill="#E7E7E7" d="M50.075 10.83a1.51 1.51 0 0 1-.747 1.274L38.962 18.2V26.6a4.547 4.547 0 0 1-2.719 4.164l-10.989 4.824a4.547 4.547 0 0 1-3.655 0l-8.954-3.931a4.541 4.541 0 0 1-.532-2.134v-8.398l-4.222-2.483v-.44l-6.815-4.009a1.512 1.512 0 0 1 .814-1.852L25.771 1.514a4.547 4.547 0 0 1 3.755 0l10.186 4.618 10.007 4.536.356.161z"/>
        <path stroke="#B4B2B2" stroke-linecap="round" stroke-width="2" d="M49.719 10.668l3.688 1.672a1.516 1.516 0 0 1 .143 2.687l-10.366 6.097v8.398a4.547 4.547 0 0 1-2.719 4.164L29.477 38.51a4.547 4.547 0 0 1-3.656 0l-10.989-4.824a4.547 4.547 0 0 1-2.719-4.164v-8.398L1.747 15.027a1.516 1.516 0 0 1 .143-2.687L25.771 1.514a4.547 4.547 0 0 1 3.755 0l10.186 4.618"/>
        <path stroke="#B4B2B2" stroke-linecap="round" stroke-width="2" d="M31.313 30.99l-3 1.535a3.635 3.635 0 0 1-2.923 0l-5.444-2.619"/>
    </g>
</svg>
